<svg width="107" height="62" viewBox="0 0 107 62" fill="none" xmlns="http://www.w3.org/2000/svg">
<path d="M3.91797 54H1.22479V45.2727H4.03729C4.88388 45.2727 5.60831 45.4474 6.21058 45.7969C6.81286 46.1435 7.2745 46.642 7.59553 47.2926C7.91655 47.9403 8.07706 48.7159 8.07706 49.6193C8.07706 50.5284 7.91513 51.3111 7.59126 51.9673C7.2674 52.6207 6.79581 53.1236 6.17649 53.4759C5.55717 53.8253 4.80433 54 3.91797 54ZM2.28161 53.0625H3.84979C4.57138 53.0625 5.16939 52.9233 5.64382 52.6449C6.11825 52.3665 6.47195 51.9702 6.7049 51.456C6.93786 50.9418 7.05433 50.3295 7.05433 49.6193C7.05433 48.9148 6.93928 48.3082 6.70916 47.7997C6.47905 47.2884 6.1353 46.8963 5.67791 46.6236C5.22053 46.348 4.65092 46.2102 3.96911 46.2102H2.28161V53.0625ZM9.71342 54V47.4545H10.685V48.4432H10.7532C10.8725 48.1193 11.0884 47.8565 11.4009 47.6548C11.7134 47.4531 12.0657 47.3523 12.4577 47.3523C12.5316 47.3523 12.6239 47.3537 12.7347 47.3565C12.8455 47.3594 12.9293 47.3636 12.9862 47.3693V48.392C12.9521 48.3835 12.8739 48.3707 12.7518 48.3537C12.6325 48.3338 12.506 48.3239 12.3725 48.3239C12.0543 48.3239 11.7702 48.3906 11.5202 48.5241C11.2731 48.6548 11.0771 48.8366 10.9322 49.0696C10.7901 49.2997 10.7191 49.5625 10.7191 49.858V54H9.71342ZM16.1044 54.1534C15.6896 54.1534 15.3132 54.0753 14.9751 53.919C14.6371 53.7599 14.3686 53.5312 14.1697 53.233C13.9709 52.9318 13.8714 52.5682 13.8714 52.142C13.8714 51.767 13.9453 51.4631 14.093 51.2301C14.2408 50.9943 14.4382 50.8097 14.6854 50.6761C14.9325 50.5426 15.2053 50.4432 15.5036 50.3778C15.8047 50.3097 16.1072 50.2557 16.4112 50.2159C16.8089 50.1648 17.1314 50.1264 17.3786 50.1009C17.6286 50.0724 17.8104 50.0256 17.924 49.9602C18.0405 49.8949 18.0987 49.7812 18.0987 49.6193V49.5852C18.0987 49.1648 17.9837 48.8381 17.7536 48.6051C17.5263 48.3722 17.1811 48.2557 16.718 48.2557C16.2379 48.2557 15.8615 48.3608 15.5888 48.571C15.3161 48.7812 15.1243 49.0057 15.0135 49.2443L14.0589 48.9034C14.2294 48.5057 14.4567 48.196 14.7408 47.9744C15.0277 47.75 15.3402 47.5937 15.6783 47.5057C16.0192 47.4148 16.3544 47.3693 16.6839 47.3693C16.8942 47.3693 17.1357 47.3949 17.4084 47.446C17.6839 47.4943 17.9496 47.5952 18.2053 47.7486C18.4638 47.902 18.6783 48.1335 18.8487 48.4432C19.0192 48.7528 19.1044 49.1676 19.1044 49.6875V54H18.0987V53.1136H18.0476C17.9794 53.2557 17.8658 53.4077 17.7067 53.5696C17.5476 53.7315 17.3359 53.8693 17.0717 53.983C16.8075 54.0966 16.4851 54.1534 16.1044 54.1534ZM16.2578 53.25C16.6555 53.25 16.9908 53.1719 17.2635 53.0156C17.5391 52.8594 17.7464 52.6577 17.8857 52.4105C18.0277 52.1634 18.0987 51.9034 18.0987 51.6307V50.7102C18.0561 50.7614 17.9624 50.8082 17.8175 50.8509C17.6754 50.8906 17.5107 50.9261 17.3232 50.9574C17.1385 50.9858 16.9581 51.0114 16.782 51.0341C16.6087 51.054 16.468 51.071 16.3601 51.0852C16.0987 51.1193 15.8544 51.1747 15.6271 51.2514C15.4027 51.3253 15.2209 51.4375 15.0817 51.5881C14.9453 51.7358 14.8771 51.9375 14.8771 52.1932C14.8771 52.5426 15.0064 52.8068 15.2649 52.9858C15.5263 53.1619 15.8572 53.25 16.2578 53.25ZM23.582 56.5909C23.0962 56.5909 22.6786 56.5284 22.3292 56.4034C21.9798 56.2812 21.6886 56.1193 21.4556 55.9176C21.2255 55.7188 21.0423 55.5057 20.9059 55.2784L21.707 54.7159C21.7979 54.8352 21.913 54.9716 22.0522 55.125C22.1914 55.2812 22.3817 55.4162 22.6232 55.5298C22.8675 55.6463 23.1871 55.7045 23.582 55.7045C24.1104 55.7045 24.5465 55.5767 24.8903 55.321C25.234 55.0653 25.4059 54.6648 25.4059 54.1193V52.7898H25.3207C25.2468 52.9091 25.1417 53.0568 25.0053 53.233C24.8718 53.4062 24.6786 53.5611 24.4258 53.6974C24.1758 53.831 23.8377 53.8977 23.4116 53.8977C22.8832 53.8977 22.4087 53.7727 21.9883 53.5227C21.5707 53.2727 21.2397 52.9091 20.9954 52.4318C20.7539 51.9545 20.6332 51.375 20.6332 50.6932C20.6332 50.0227 20.7511 49.4389 20.9869 48.9418C21.2227 48.4418 21.5508 48.0554 21.9712 47.7827C22.3917 47.5071 22.8775 47.3693 23.4286 47.3693C23.8548 47.3693 24.1928 47.4403 24.4428 47.5824C24.6957 47.7216 24.8888 47.8807 25.0224 48.0597C25.1587 48.2358 25.2638 48.3807 25.3377 48.4943H25.44V47.4545H26.4116V54.1875C26.4116 54.75 26.2837 55.2074 26.0281 55.5597C25.7752 55.9148 25.4343 56.1747 25.0053 56.3395C24.5792 56.5071 24.1048 56.5909 23.582 56.5909ZM23.5479 52.9943C23.9513 52.9943 24.2923 52.902 24.5707 52.7173C24.8491 52.5327 25.0607 52.267 25.2056 51.9205C25.3505 51.5739 25.4229 51.1591 25.4229 50.6761C25.4229 50.2045 25.3519 49.7884 25.2099 49.4276C25.0678 49.0668 24.8576 48.7841 24.5792 48.5795C24.3008 48.375 23.957 48.2727 23.5479 48.2727C23.1218 48.2727 22.7667 48.3807 22.4826 48.5966C22.2013 48.8125 21.9897 49.1023 21.8477 49.4659C21.7085 49.8295 21.6388 50.233 21.6388 50.6761C21.6388 51.1307 21.7099 51.5327 21.8519 51.8821C21.9968 52.2287 22.2099 52.5014 22.4911 52.7003C22.7752 52.8963 23.1275 52.9943 23.5479 52.9943ZM34.0991 54.1193C33.5252 54.1193 33.0309 54.0142 32.6161 53.804C32.2013 53.5937 31.8817 53.3054 31.6573 52.9389C31.4329 52.5724 31.3207 52.1534 31.3207 51.6818C31.3207 51.3182 31.3974 50.9957 31.5508 50.7145C31.707 50.4304 31.9215 50.1676 32.1942 49.9261C32.4698 49.6818 32.7866 49.4375 33.1445 49.1932L34.4059 48.2557C34.6531 48.0937 34.8505 47.9205 34.9982 47.7358C35.1488 47.5511 35.2241 47.3097 35.2241 47.0114C35.2241 46.7898 35.1261 46.5753 34.93 46.3679C34.7369 46.1605 34.4826 46.0568 34.1673 46.0568C33.9457 46.0568 33.7496 46.1136 33.5792 46.2273C33.4116 46.3381 33.2795 46.4801 33.1829 46.6534C33.0891 46.8239 33.0423 47 33.0423 47.1818C33.0423 47.3864 33.0977 47.5938 33.2085 47.804C33.3221 48.0114 33.4656 48.2244 33.6388 48.4432C33.815 48.6591 33.9968 48.8807 34.1843 49.108L38.19 54H36.9798L33.6729 50.0114C33.3661 49.642 33.0877 49.3068 32.8377 49.0057C32.5877 48.7045 32.3888 48.4077 32.2411 48.1151C32.0934 47.8224 32.0195 47.5057 32.0195 47.1648C32.0195 46.7727 32.1062 46.429 32.2795 46.1335C32.4556 45.8352 32.7013 45.6037 33.0167 45.4389C33.3349 45.2713 33.707 45.1875 34.1332 45.1875C34.5707 45.1875 34.9471 45.2727 35.2624 45.4432C35.5778 45.6108 35.8207 45.8338 35.9911 46.1122C36.1616 46.3878 36.2468 46.6875 36.2468 47.0114C36.2468 47.429 36.1431 47.7912 35.9357 48.098C35.7283 48.4048 35.4457 48.6903 35.0877 48.9545L33.3491 50.25C32.957 50.5398 32.6914 50.821 32.5522 51.0938C32.413 51.3665 32.3434 51.5625 32.3434 51.6818C32.3434 51.9545 32.4144 52.2088 32.5565 52.4446C32.6985 52.6804 32.8988 52.8707 33.1573 53.0156C33.4158 53.1605 33.7184 53.233 34.065 53.233C34.3945 53.233 34.7156 53.1634 35.0281 53.0241C35.3406 52.8821 35.6232 52.6776 35.8761 52.4105C36.1317 52.1435 36.3335 51.8224 36.4812 51.4474C36.6317 51.0724 36.707 50.6506 36.707 50.1818H37.6786C37.6786 50.7614 37.6119 51.2344 37.4783 51.6009C37.3448 51.9673 37.1942 52.2543 37.0266 52.4616C36.859 52.669 36.7241 52.8239 36.6218 52.9261C36.5877 52.9687 36.5565 53.0114 36.5281 53.054C36.4996 53.0966 36.4684 53.1392 36.4343 53.1818C36.1531 53.4972 35.7979 53.733 35.369 53.8892C34.94 54.0426 34.5167 54.1193 34.0991 54.1193ZM45.5078 54H42.8146V45.2727H45.6271C46.4737 45.2727 47.1982 45.4474 47.8004 45.7969C48.4027 46.1435 48.8643 46.642 49.1854 47.2926C49.5064 47.9403 49.6669 48.7159 49.6669 49.6193C49.6669 50.5284 49.505 51.3111 49.1811 51.9673C48.8572 52.6207 48.3857 53.1236 47.7663 53.4759C47.147 53.8253 46.3942 54 45.5078 54ZM43.8714 53.0625H45.4396C46.1612 53.0625 46.7592 52.9233 47.2337 52.6449C47.7081 52.3665 48.0618 51.9702 48.2947 51.456C48.5277 50.9418 48.6442 50.3295 48.6442 49.6193C48.6442 48.9148 48.5291 48.3082 48.299 47.7997C48.0689 47.2884 47.7251 46.8963 47.2678 46.6236C46.8104 46.348 46.2408 46.2102 45.5589 46.2102H43.8714V53.0625ZM51.3033 54V47.4545H52.2749V48.4432H52.343C52.4624 48.1193 52.6783 47.8565 52.9908 47.6548C53.3033 47.4531 53.6555 47.3523 54.0476 47.3523C54.1214 47.3523 54.2138 47.3537 54.3246 47.3565C54.4354 47.3594 54.5192 47.3636 54.576 47.3693V48.392C54.5419 48.3835 54.4638 48.3707 54.3416 48.3537C54.2223 48.3338 54.0959 48.3239 53.9624 48.3239C53.6442 48.3239 53.3601 48.3906 53.1101 48.5241C52.8629 48.6548 52.6669 48.8366 52.522 49.0696C52.38 49.2997 52.3089 49.5625 52.3089 49.858V54H51.3033ZM58.228 54.1364C57.6371 54.1364 57.1186 53.9957 56.6726 53.7145C56.2294 53.4332 55.8828 53.0398 55.6328 52.5341C55.3857 52.0284 55.2621 51.4375 55.2621 50.7614C55.2621 50.0795 55.3857 49.4844 55.6328 48.9759C55.8828 48.4673 56.2294 48.0724 56.6726 47.7912C57.1186 47.5099 57.6371 47.3693 58.228 47.3693C58.8189 47.3693 59.3359 47.5099 59.7791 47.7912C60.2251 48.0724 60.5717 48.4673 60.8189 48.9759C61.0689 49.4844 61.1939 50.0795 61.1939 50.7614C61.1939 51.4375 61.0689 52.0284 60.8189 52.5341C60.5717 53.0398 60.2251 53.4332 59.7791 53.7145C59.3359 53.9957 58.8189 54.1364 58.228 54.1364ZM58.228 53.233C58.6768 53.233 59.0462 53.1179 59.3359 52.8878C59.6257 52.6577 59.8402 52.3551 59.9794 51.9801C60.1186 51.6051 60.1882 51.1989 60.1882 50.7614C60.1882 50.3239 60.1186 49.9162 59.9794 49.5384C59.8402 49.1605 59.6257 48.8551 59.3359 48.6222C59.0462 48.3892 58.6768 48.2727 58.228 48.2727C57.7791 48.2727 57.4098 48.3892 57.12 48.6222C56.8303 48.8551 56.6158 49.1605 56.4766 49.5384C56.3374 49.9162 56.2678 50.3239 56.2678 50.7614C56.2678 51.1989 56.3374 51.6051 56.4766 51.9801C56.6158 52.3551 56.8303 52.6577 57.12 52.8878C57.4098 53.1179 57.7791 53.233 58.228 53.233ZM62.729 56.4545V47.4545H63.7006V48.4943H63.82C63.8938 48.3807 63.9961 48.2358 64.1268 48.0597C64.2603 47.8807 64.4506 47.7216 64.6978 47.5824C64.9478 47.4403 65.2859 47.3693 65.712 47.3693C66.2631 47.3693 66.7489 47.5071 67.1694 47.7827C67.5898 48.0582 67.918 48.4489 68.1538 48.9545C68.3896 49.4602 68.5075 50.0568 68.5075 50.7443C68.5075 51.4375 68.3896 52.0384 68.1538 52.5469C67.918 53.0526 67.5913 53.4446 67.1737 53.723C66.756 53.9986 66.2745 54.1364 65.729 54.1364C65.3086 54.1364 64.9719 54.0668 64.7191 53.9276C64.4663 53.7855 64.2717 53.625 64.1353 53.446C63.9989 53.2642 63.8938 53.1136 63.82 52.9943H63.7347V56.4545H62.729ZM63.7177 50.7273C63.7177 51.2216 63.7901 51.6577 63.935 52.0355C64.0799 52.4105 64.2915 52.7045 64.57 52.9176C64.8484 53.1278 65.1893 53.233 65.5927 53.233C66.0131 53.233 66.364 53.1222 66.6452 52.9006C66.9293 52.6761 67.1424 52.375 67.2844 51.9972C67.4293 51.6165 67.5018 51.1932 67.5018 50.7273C67.5018 50.267 67.4308 49.8523 67.2887 49.483C67.1495 49.1108 66.9379 48.8168 66.6538 48.6009C66.3725 48.3821 66.0188 48.2727 65.5927 48.2727C65.1836 48.2727 64.8398 48.3764 64.5614 48.5838C64.283 48.7884 64.0728 49.0753 63.9308 49.4446C63.7887 49.8111 63.7177 50.2386 63.7177 50.7273ZM73.4165 54V47.4545H74.4222V54H73.4165ZM73.9279 46.3636C73.7319 46.3636 73.5629 46.2969 73.4208 46.1634C73.2816 46.0298 73.212 45.8693 73.212 45.6818C73.212 45.4943 73.2816 45.3338 73.4208 45.2003C73.5629 45.0668 73.7319 45 73.9279 45C74.1239 45 74.2915 45.0668 74.4308 45.2003C74.5728 45.3338 74.6438 45.4943 74.6438 45.6818C74.6438 45.8693 74.5728 46.0298 74.4308 46.1634C74.2915 46.2969 74.1239 46.3636 73.9279 46.3636ZM76.2642 54V47.4545H77.2358V48.4773H77.321C77.4574 48.1278 77.6776 47.8565 77.9815 47.6634C78.2855 47.4673 78.6506 47.3693 79.0767 47.3693C79.5085 47.3693 79.8679 47.4673 80.1548 47.6634C80.4446 47.8565 80.6705 48.1278 80.8324 48.4773H80.9006C81.0682 48.1392 81.3196 47.8707 81.6548 47.6719C81.9901 47.4702 82.392 47.3693 82.8608 47.3693C83.446 47.3693 83.9247 47.5526 84.2969 47.919C84.669 48.2827 84.8551 48.8494 84.8551 49.6193V54H83.8494V49.6193C83.8494 49.1364 83.7173 48.7912 83.4531 48.5838C83.1889 48.3764 82.8778 48.2727 82.5199 48.2727C82.0597 48.2727 81.7031 48.4119 81.4503 48.6903C81.1974 48.9659 81.071 49.3153 81.071 49.7386V54H80.0483V49.517C80.0483 49.1449 79.9276 48.8452 79.6861 48.6179C79.4446 48.3878 79.1335 48.2727 78.7528 48.2727C78.4915 48.2727 78.2472 48.3423 78.0199 48.4815C77.7955 48.6207 77.6136 48.8139 77.4744 49.0611C77.3381 49.3054 77.2699 49.5881 77.2699 49.9091V54H76.2642ZM88.62 54.1534C88.2053 54.1534 87.8288 54.0753 87.4908 53.919C87.1527 53.7599 86.8842 53.5312 86.6854 53.233C86.4865 52.9318 86.3871 52.5682 86.3871 52.142C86.3871 51.767 86.4609 51.4631 86.6087 51.2301C86.7564 50.9943 86.9538 50.8097 87.201 50.6761C87.4482 50.5426 87.7209 50.4432 88.0192 50.3778C88.3203 50.3097 88.6229 50.2557 88.9268 50.2159C89.3246 50.1648 89.647 50.1264 89.8942 50.1009C90.1442 50.0724 90.326 50.0256 90.4396 49.9602C90.5561 49.8949 90.6143 49.7812 90.6143 49.6193V49.5852C90.6143 49.1648 90.4993 48.8381 90.2692 48.6051C90.0419 48.3722 89.6967 48.2557 89.2337 48.2557C88.7536 48.2557 88.3771 48.3608 88.1044 48.571C87.8317 48.7812 87.6399 49.0057 87.5291 49.2443L86.5746 48.9034C86.745 48.5057 86.9723 48.196 87.2564 47.9744C87.5433 47.75 87.8558 47.5937 88.1939 47.5057C88.5348 47.4148 88.87 47.3693 89.1996 47.3693C89.4098 47.3693 89.6513 47.3949 89.924 47.446C90.1996 47.4943 90.4652 47.5952 90.7209 47.7486C90.9794 47.902 91.1939 48.1335 91.3643 48.4432C91.5348 48.7528 91.62 49.1676 91.62 49.6875V54H90.6143V53.1136H90.5632C90.495 53.2557 90.3814 53.4077 90.2223 53.5696C90.0632 53.7315 89.8516 53.8693 89.5874 53.983C89.3232 54.0966 89.0007 54.1534 88.62 54.1534ZM88.7734 53.25C89.1712 53.25 89.5064 53.1719 89.7791 53.0156C90.0547 52.8594 90.2621 52.6577 90.4013 52.4105C90.5433 52.1634 90.6143 51.9034 90.6143 51.6307V50.7102C90.5717 50.7614 90.478 50.8082 90.3331 50.8509C90.1911 50.8906 90.0263 50.9261 89.8388 50.9574C89.6541 50.9858 89.4737 51.0114 89.2976 51.0341C89.1243 51.054 88.9837 51.071 88.8757 51.0852C88.6143 51.1193 88.37 51.1747 88.1428 51.2514C87.9183 51.3253 87.7365 51.4375 87.5973 51.5881C87.4609 51.7358 87.3928 51.9375 87.3928 52.1932C87.3928 52.5426 87.522 52.8068 87.7805 52.9858C88.0419 53.1619 88.3729 53.25 88.7734 53.25ZM96.0977 56.5909C95.6119 56.5909 95.1942 56.5284 94.8448 56.4034C94.4954 56.2812 94.2042 56.1193 93.9712 55.9176C93.7411 55.7188 93.5579 55.5057 93.4215 55.2784L94.2227 54.7159C94.3136 54.8352 94.4286 54.9716 94.5678 55.125C94.707 55.2812 94.8974 55.4162 95.1388 55.5298C95.3832 55.6463 95.7028 55.7045 96.0977 55.7045C96.6261 55.7045 97.0621 55.5767 97.4059 55.321C97.7496 55.0653 97.9215 54.6648 97.9215 54.1193V52.7898H97.8363C97.7624 52.9091 97.6573 53.0568 97.521 53.233C97.3874 53.4062 97.1942 53.5611 96.9414 53.6974C96.6914 53.831 96.3533 53.8977 95.9272 53.8977C95.3988 53.8977 94.9244 53.7727 94.5039 53.5227C94.0863 53.2727 93.7553 52.9091 93.511 52.4318C93.2695 51.9545 93.1488 51.375 93.1488 50.6932C93.1488 50.0227 93.2667 49.4389 93.5025 48.9418C93.7383 48.4418 94.0664 48.0554 94.4869 47.7827C94.9073 47.5071 95.3931 47.3693 95.9442 47.3693C96.3704 47.3693 96.7085 47.4403 96.9585 47.5824C97.2113 47.7216 97.4045 47.8807 97.538 48.0597C97.6744 48.2358 97.7795 48.3807 97.8533 48.4943H97.9556V47.4545H98.9272V54.1875C98.9272 54.75 98.7994 55.2074 98.5437 55.5597C98.2908 55.9148 97.9499 56.1747 97.521 56.3395C97.0948 56.5071 96.6204 56.5909 96.0977 56.5909ZM96.0636 52.9943C96.467 52.9943 96.8079 52.902 97.0863 52.7173C97.3647 52.5327 97.5763 52.267 97.7212 51.9205C97.8661 51.5739 97.9386 51.1591 97.9386 50.6761C97.9386 50.2045 97.8675 49.7884 97.7255 49.4276C97.5835 49.0668 97.3732 48.7841 97.0948 48.5795C96.8164 48.375 96.4727 48.2727 96.0636 48.2727C95.6374 48.2727 95.2823 48.3807 94.9982 48.5966C94.717 48.8125 94.5053 49.1023 94.3633 49.4659C94.2241 49.8295 94.1545 50.233 94.1545 50.6761C94.1545 51.1307 94.2255 51.5327 94.3675 51.8821C94.5124 52.2287 94.7255 52.5014 95.0067 52.7003C95.2908 52.8963 95.6431 52.9943 96.0636 52.9943ZM103.512 54.1364C102.882 54.1364 102.338 53.9972 101.88 53.7188C101.426 53.4375 101.075 53.0455 100.828 52.5426C100.583 52.0369 100.461 51.4489 100.461 50.7784C100.461 50.108 100.583 49.517 100.828 49.0057C101.075 48.4915 101.419 48.0909 101.859 47.804C102.302 47.5142 102.819 47.3693 103.41 47.3693C103.751 47.3693 104.088 47.4261 104.42 47.5398C104.752 47.6534 105.055 47.8381 105.328 48.0938C105.6 48.3466 105.818 48.6818 105.98 49.0994C106.142 49.517 106.223 50.0312 106.223 50.642V51.0682H101.177V50.1989H105.2C105.2 49.8295 105.126 49.5 104.978 49.2102C104.833 48.9205 104.626 48.6918 104.356 48.5241C104.089 48.3565 103.774 48.2727 103.41 48.2727C103.01 48.2727 102.663 48.3722 102.37 48.571C102.081 48.767 101.858 49.0227 101.701 49.3381C101.545 49.6534 101.467 49.9915 101.467 50.3523V50.9318C101.467 51.4261 101.552 51.8452 101.723 52.1889C101.896 52.5298 102.136 52.7898 102.443 52.9688C102.75 53.1449 103.106 53.233 103.512 53.233C103.777 53.233 104.015 53.196 104.228 53.1222C104.444 53.0455 104.63 52.9318 104.787 52.7812C104.943 52.6278 105.064 52.4375 105.149 52.2102L106.12 52.483C106.018 52.8125 105.846 53.1023 105.605 53.3523C105.363 53.5994 105.065 53.7926 104.71 53.9318C104.355 54.0682 103.956 54.1364 103.512 54.1364Z" fill="#737373"/>
<path d="M44.2933 8.7067C43.9026 8.31603 43.9026 7.68265 44.2933 7.29198L48.2933 3.29198C48.3853 3.19998 48.4961 3.12667 48.6188 3.076C48.8628 2.97467 49.1388 2.97467 49.3828 3.076C49.5055 3.12667 49.616 3.19998 49.708 3.29198L53.708 7.29198C54.0987 7.68265 54.0987 8.31603 53.708 8.7067C53.5133 8.90136 53.2573 8.99999 53.0013 8.99999C52.7453 8.99999 52.4893 8.9027 52.2946 8.7067L50.0013 6.41332V21.3333C50.0013 21.8853 49.5533 22.3333 49.0013 22.3333C48.4493 22.3333 48.0013 21.8853 48.0013 21.3333V6.41462L45.708 8.708C45.316 9.09733 44.684 9.09736 44.2933 8.7067ZM57 12.3333C56.448 12.3333 56 12.7813 56 13.3333C56 13.8853 56.448 14.3333 57 14.3333C59.1027 14.3333 60 15.2307 60 17.3333V24C60 26.1027 59.1027 27 57 27H41C38.8973 27 38 26.1027 38 24V17.3333C38 15.2307 38.8973 14.3333 41 14.3333C41.552 14.3333 42 13.8853 42 13.3333C42 12.7813 41.552 12.3333 41 12.3333C37.776 12.3333 36 14.1093 36 17.3333V24C36 27.224 37.776 29 41 29H57C60.224 29 62 27.224 62 24V17.3333C62 14.1093 60.224 12.3333 57 12.3333Z" fill="#737373"/>
</svg>
